{"glyphs":{":":{"x_min":0,"x_max":275,"ha":275,"o":"m 206 377 l 98 377 l 98 500 l 206 500 z m 206 0 l 98 0 l 98 123 l 206 123 z"},"$":{"x_min":0,"x_max":559,"ha":559,"o":"m 524 195 q 524 89 463 41 q 402 -8 307 -13 l 307 -104 l 256 -104 l 256 -14 q 146 -14 91 46 q 35 105 35 209 l 136 209 q 136 73 256 73 l 256 322 q 229 329 218 332 q 206 335 183 342 q 160 349 149 354 q 139 358 121 368 q 103 378 94 387 q 85 396 74 411 q 62 425 57 440 q 52 456 48 477 q 44 498 44 522 q 44 607 100 661 q 155 714 256 714 l 256 795 l 307 795 l 307 715 q 402 715 449 660 q 495 605 495 524 l 394 524 q 394 583 375 605 q 357 627 307 627 l 307 408 q 328 401 356 398 q 384 395 414 380 q 443 365 468 346 q 492 326 508 287 q 524 248 524 195 z m 256 420 l 256 627 q 232 627 214 623 q 196 619 185 615 q 173 611 165 600 q 157 589 154 583 q 150 578 148 562 q 146 546 146 541 q 146 536 146 519 q 146 479 159 461 q 172 442 196 437 q 220 431 256 420 z m 422 187 q 422 213 418 232 q 414 252 407 265 q 399 277 389 286 q 379 295 366 300 q 354 305 338 309 q 323 313 307 317 l 307 74 q 367 75 395 100 q 422 124 422 187 z"},"?":{"x_min":0,"x_max":517,"ha":517,"o":"m 460 555 q 460 516 439 479 q 419 443 389 417 q 359 391 330 368 q 300 345 279 321 q 259 298 259 277 l 259 165 l 179 165 l 179 293 q 179 313 198 335 q 217 356 243 377 q 270 398 296 423 q 323 447 342 482 q 361 518 361 558 q 361 597 325 620 q 288 644 236 642 q 213 641 203 640 q 192 640 173 635 q 154 631 143 623 q 132 615 117 601 q 103 586 91 563 l 25 605 q 93 736 234 736 q 324 736 392 687 q 460 638 460 555 z m 269 0 l 169 0 l 169 95 l 269 95 z"},"<":{"x_min":0,"x_max":1000,"ha":1000,"o":"m 800 39 l 200 269 l 200 331 l 800 561 l 800 499 l 264 300 l 800 101 z"},"'":{"x_min":0,"x_max":368,"ha":368,"o":"m 237 722 l 214 434 l 154 434 l 131 722 z"},"=":{"x_min":0,"x_max":1000,"ha":1000,"o":"m 800 360 l 200 360 l 200 422 l 800 422 z m 800 178 l 200 178 l 200 240 l 800 240 z"},"a":{"x_min":0,"x_max":552,"ha":552,"o":"m 494 0 l 404 0 q 394 57 393 73 q 367 43 352 28 q 336 13 307 0 q 277 -13 240 -13 q 169 -13 109 26 q 49 64 49 132 q 49 176 66 209 q 83 242 110 262 q 137 282 174 295 q 211 308 246 312 q 281 316 320 316 q 332 316 354 315 q 377 314 389 314 q 401 372 374 409 q 347 446 281 446 q 235 446 202 427 q 169 407 169 365 l 76 365 q 76 513 277 513 q 437 513 470 428 q 481 400 481 270 l 481 183 q 481 37 494 0 z m 388 246 q 338 249 336 249 q 308 249 278 245 q 249 240 216 230 q 183 220 162 197 q 142 175 142 144 q 142 103 171 78 q 200 54 241 54 q 327 54 357 104 q 388 154 388 246 z"},"L":{"x_min":0,"x_max":529,"ha":529,"o":"m 500 0 l 80 0 l 80 722 l 181 722 l 181 87 l 500 87 z"},"3":{"x_min":0,"x_max":559,"ha":559,"o":"m 513 193 q 513 104 446 45 q 379 -14 276 -14 q 163 -14 104 47 q 46 107 46 190 l 152 190 q 164 63 279 63 q 330 63 372 100 q 413 137 413 185 q 413 339 211 336 l 211 416 q 305 416 353 448 q 401 480 401 553 q 401 609 362 634 q 322 659 276 659 q 184 659 162 534 l 61 534 q 73 632 128 684 q 183 736 274 736 q 375 736 438 682 q 501 628 501 546 q 501 512 487 482 q 473 453 452 436 q 432 419 409 403 q 387 387 371 379 q 378 375 400 363 q 423 352 438 340 q 454 329 473 310 q 492 290 502 261 q 513 231 513 193 z"},";":{"x_min":0,"x_max":275,"ha":275,"o":"m 206 377 l 98 377 l 98 500 l 206 500 z m 228 123 l 118 -127 l 48 -127 l 108 123 z"},"J":{"x_min":0,"x_max":568,"ha":568,"o":"m 489 215 q 489 112 428 49 q 366 -14 268 -14 q 174 -14 117 44 q 60 103 60 194 l 158 194 q 161 74 273 74 q 322 74 355 111 q 388 147 388 215 l 388 722 l 489 722 z"},"V":{"x_min":0,"x_max":653,"ha":653,"o":"m 639 722 l 382 0 l 272 0 l 15 722 l 128 722 l 327 130 l 526 722 z"},"\"":{"x_min":0,"x_max":451,"ha":451,"o":"m 382 722 l 359 434 l 299 434 l 276 722 z m 176 722 l 153 434 l 93 434 l 70 722 z"},"7":{"x_min":0,"x_max":559,"ha":559,"o":"m 502 622 l 267 0 l 157 0 l 412 642 l 57 642 l 57 722 l 502 722 z"},"S":{"x_min":0,"x_max":661,"ha":661,"o":"m 602 201 q 602 141 575 97 q 548 53 502 30 q 456 7 406 -3 q 356 -14 299 -14 q 193 -14 126 49 q 60 111 60 215 l 162 215 q 162 156 200 115 q 237 74 296 74 q 320 74 340 76 q 360 77 386 81 q 411 84 430 92 q 449 101 466 113 q 483 126 492 146 q 501 167 501 193 q 501 239 477 268 q 453 296 416 308 q 378 320 332 328 q 285 335 239 346 q 193 356 156 375 q 118 394 94 435 q 70 476 70 538 q 70 599 109 645 q 147 691 203 714 q 258 736 316 736 q 356 736 393 730 q 429 725 462 710 q 495 695 520 673 q 544 651 559 617 q 573 583 573 540 l 472 540 q 472 575 458 598 q 445 621 420 632 q 395 643 369 646 q 344 649 310 649 q 171 649 171 535 q 171 498 195 474 q 219 450 256 438 q 294 427 340 418 q 387 410 433 397 q 479 384 516 364 q 554 344 578 302 q 602 261 602 201 z"},"}":{"x_min":0,"x_max":487,"ha":487,"o":"m 408 224 q 354 211 326 181 q 298 150 292 108 q 287 66 288 23 q 289 -21 285 -72 q 281 -123 264 -159 q 238 -211 194 -226 q 150 -240 80 -240 l 80 -166 q 126 -166 153 -150 q 180 -135 188 -109 q 196 -84 199 -52 q 201 -21 198 13 q 194 46 198 76 q 205 148 223 184 q 241 219 283 261 q 241 302 223 337 q 205 373 198 445 q 194 476 198 508 q 201 541 199 573 q 196 604 188 629 q 180 654 153 670 q 126 686 80 686 l 80 760 q 152 760 197 745 q 241 730 264 679 q 280 643 284 590 q 288 538 287 495 q 286 451 292 409 q 299 367 327 337 q 354 308 408 297 z"},"Z":{"x_min":0,"x_max":615,"ha":615,"o":"m 571 0 l 45 0 l 45 110 l 451 635 l 65 635 l 65 722 l 561 722 l 561 612 l 155 87 l 571 87 z"},"x":{"x_min":0,"x_max":547,"ha":547,"o":"m 527 0 l 413 0 l 267 197 l 125 0 l 20 0 l 219 259 l 35 500 l 149 500 l 281 321 l 409 500 l 514 500 l 328 259 z"},")":{"x_min":0,"x_max":359,"ha":359,"o":"m 269 302 q 269 74 156 -132 l 92 -132 q 174 103 174 302 q 174 506 92 736 l 156 736 q 269 530 269 302 z"},"&":{"x_min":0,"x_max":766,"ha":766,"o":"m 751 0 l 617 0 q 580 27 539 71 q 533 66 521 58 q 508 49 477 30 q 445 12 399 0 q 354 -13 305 -13 q 202 -13 131 48 q 60 109 60 207 q 60 254 72 290 q 85 326 111 351 q 138 376 160 390 q 183 404 218 421 q 190 453 177 472 q 163 490 149 528 q 135 566 141 602 q 151 659 198 698 q 245 736 319 736 q 399 736 450 698 q 501 660 501 598 q 501 568 490 542 q 479 516 466 499 q 453 482 426 462 q 399 442 387 435 q 375 428 345 411 q 383 363 432 312 q 481 261 534 209 q 553 271 553 311 q 554 351 545 422 l 651 422 q 651 369 650 340 q 648 312 636 254 q 623 197 597 146 q 630 108 690 55 z m 412 559 q 431 599 403 630 q 376 661 331 661 q 283 661 261 639 q 238 617 238 585 q 238 534 296 464 q 347 486 371 505 q 396 524 412 559 z m 487 132 q 381 224 265 364 q 223 354 191 308 q 159 261 159 210 q 159 166 203 119 q 247 72 308 72 q 419 72 487 132 z"},"_":{"x_min":0,"x_max":500,"ha":500,"o":"m 500 -129 l 0 -129 l 0 -74 l 500 -74 z"},"v":{"x_min":0,"x_max":534,"ha":534,"o":"m 520 500 l 314 0 l 222 0 l 15 500 l 120 500 l 273 110 l 425 500 z"},"O":{"x_min":0,"x_max":773,"ha":773,"o":"m 714 375 q 714 269 680 183 q 646 97 570 42 q 494 -14 388 -14 q 281 -14 205 42 q 129 97 94 183 q 60 269 60 375 q 60 537 143 637 q 227 736 388 736 q 548 736 631 637 q 714 537 714 375 z m 611 375 q 611 436 601 483 q 590 530 565 569 q 541 607 496 628 q 451 649 388 649 q 163 649 163 375 q 163 327 169 285 q 176 243 192 204 q 208 164 233 136 q 258 108 297 91 q 337 74 388 74 q 438 74 478 91 q 518 108 542 136 q 567 164 583 204 q 599 244 605 286 q 611 327 611 375 z"},"(":{"x_min":0,"x_max":359,"ha":359,"o":"m 268 -132 l 204 -132 q 91 73 91 302 q 91 531 204 736 l 268 736 q 186 506 186 302 q 186 103 268 -132 z"},"C":{"x_min":0,"x_max":680,"ha":680,"o":"m 620 193 q 620 104 550 45 q 479 -14 357 -14 q 276 -14 217 16 q 157 46 124 99 q 91 151 75 215 q 60 279 60 356 q 60 434 75 499 q 91 563 124 619 q 157 674 217 705 q 277 736 359 736 q 488 736 552 678 q 616 620 616 529 l 515 529 q 515 594 479 625 q 442 657 360 657 q 162 657 162 356 q 162 200 211 134 q 260 67 356 67 q 519 67 519 193 z"},"W":{"x_min":0,"x_max":972,"ha":972,"o":"m 957 722 l 743 0 l 653 0 l 486 602 l 319 0 l 229 0 l 15 722 l 121 722 l 274 150 l 426 722 l 546 722 l 698 150 l 851 722 z"},"A":{"x_min":0,"x_max":750,"ha":750,"o":"m 735 0 l 629 0 l 551 193 l 197 193 l 118 0 l 15 0 l 318 722 l 428 722 z m 509 278 l 371 611 l 236 278 z"},"f":{"x_min":0,"x_max":329,"ha":329,"o":"m 330 648 q 309 660 281 660 q 238 662 219 642 q 200 622 200 573 l 200 500 l 320 500 l 320 435 l 200 435 l 200 0 l 110 0 l 110 435 l 10 435 l 10 500 l 110 500 l 110 575 q 110 666 148 700 q 187 733 265 732 q 300 732 330 722 z"},"Q":{"x_min":0,"x_max":784,"ha":784,"o":"m 603 72 q 641 82 646 83 q 694 90 726 90 q 745 90 765 89 l 765 0 l 586 2 l 529 -1 q 528 -1 526 -1 q 526 -1 525 -1 l 524 -1 q 523 -1 521 -1 q 520 -1 518 -1 q 498 -1 475 -4 q 468 -5 454 -7 q 440 -10 433 -11 q 410 -14 390 -14 q 387 -14 384 -14 q 284 -14 208 38 q 136 89 98 178 q 60 266 60 377 q 60 486 99 567 q 138 648 211 692 q 285 736 388 736 l 389 736 q 490 736 564 692 q 637 649 676 567 q 714 487 714 379 q 714 301 694 232 q 678 177 649 132 q 629 100 603 72 z m 611 375 q 611 436 601 483 q 590 530 565 569 q 541 607 496 628 q 451 649 388 649 q 163 649 163 375 q 163 327 169 285 q 176 243 192 204 q 208 164 233 136 q 258 108 297 91 q 337 74 388 74 q 438 74 478 91 q 518 108 542 136 q 567 164 583 204 q 599 244 605 286 q 611 327 611 375 z"},"w":{"x_min":0,"x_max":813,"ha":813,"o":"m 799 500 l 630 0 l 540 0 l 407 415 l 274 0 l 184 0 l 15 500 l 111 500 l 229 110 l 347 500 l 467 500 l 585 110 l 703 500 z"},"-":{"x_min":0,"x_max":319,"ha":319,"o":"m 280 203 l 40 203 l 40 285 l 280 285 z"},"E":{"x_min":0,"x_max":606,"ha":606,"o":"m 537 0 l 80 0 l 80 722 l 527 722 l 527 635 l 181 635 l 181 413 l 517 413 l 517 326 l 181 326 l 181 87 l 537 87 z"},"s":{"x_min":0,"x_max":503,"ha":503,"o":"m 453 147 q 453 63 390 25 q 327 -13 235 -13 q 151 -13 101 25 q 50 63 50 145 l 142 145 q 143 52 246 52 q 292 52 327 75 q 361 98 361 140 q 361 174 331 191 q 300 209 255 216 q 211 224 167 235 q 123 246 92 281 q 62 315 62 375 q 62 433 106 473 q 151 513 250 513 q 340 513 390 481 q 439 450 439 366 l 347 366 q 347 449 248 449 q 209 449 182 429 q 154 408 154 375 q 154 340 185 322 q 216 304 260 296 q 304 288 348 277 q 392 266 422 234 q 453 202 453 147 z"},">":{"x_min":0,"x_max":1000,"ha":1000,"o":"m 800 269 l 200 39 l 200 101 l 736 300 l 200 499 l 200 561 l 800 331 z"},"l":{"x_min":0,"x_max":229,"ha":229,"o":"m 160 0 l 70 0 l 70 722 l 160 722 z"},"8":{"x_min":0,"x_max":559,"ha":559,"o":"m 517 185 q 517 132 495 92 q 473 52 437 30 q 401 9 362 -2 q 323 -13 281 -13 q 239 -13 199 -2 q 159 9 123 30 q 87 52 65 92 q 43 132 43 185 q 43 235 64 277 q 86 319 111 340 q 137 361 158 372 l 180 383 q 173 386 161 393 q 148 400 124 421 q 99 441 82 478 q 65 514 65 559 q 65 644 131 690 q 196 736 281 736 q 365 736 431 690 q 496 644 496 559 q 496 514 478 477 q 459 440 437 421 q 415 402 396 393 l 378 383 q 384 381 393 376 q 402 372 426 355 q 450 339 468 318 q 486 298 501 262 q 517 227 517 185 z m 405 539 q 405 595 373 627 q 340 659 281 659 q 223 659 190 627 q 157 595 157 539 q 157 485 193 453 q 229 420 281 420 q 333 420 369 453 q 405 485 405 539 z m 420 205 q 420 268 383 305 q 347 343 281 343 q 216 343 177 305 q 138 267 138 205 q 138 141 173 103 q 208 64 281 64 q 354 64 387 103 q 420 141 420 205 z"},"\\":{"x_min":0,"x_max":396,"ha":396,"o":"m 351 -52 l 282 -52 l 46 736 l 115 736 z"},"e":{"x_min":0,"x_max":557,"ha":557,"o":"m 507 283 q 507 283 504 236 l 147 236 q 147 153 180 103 q 212 52 280 52 q 342 52 372 85 q 402 118 407 159 l 504 159 q 500 139 493 120 q 485 101 469 75 q 452 50 429 31 q 405 13 367 0 q 328 -13 279 -13 q 220 -13 173 12 q 127 36 101 76 q 75 115 62 160 q 50 204 50 250 q 50 300 62 344 q 74 389 101 428 q 127 467 174 490 q 222 513 285 513 q 341 513 383 496 q 425 479 448 455 q 471 431 485 397 q 499 364 503 338 q 507 312 507 283 z m 407 301 q 415 362 385 406 q 354 449 281 449 q 167 449 147 301 z"},"b":{"x_min":0,"x_max":590,"ha":590,"o":"m 540 271 q 540 141 476 64 q 411 -13 329 -13 q 282 -13 240 5 q 197 23 179 41 l 160 59 l 160 0 l 70 0 l 70 722 l 157 722 l 157 431 q 210 513 326 513 q 385 513 429 488 q 473 464 496 425 q 519 387 529 348 q 540 310 540 271 z m 444 262 q 444 345 410 400 q 376 455 304 455 q 233 455 196 398 q 158 341 158 262 q 158 54 301 54 q 362 54 403 110 q 444 167 444 262 z"},"m":{"x_min":0,"x_max":896,"ha":896,"o":"m 826 0 l 736 0 l 736 323 q 736 383 708 416 q 680 449 623 449 q 571 449 533 408 q 495 367 495 323 l 495 0 l 405 0 l 405 323 q 405 374 375 412 q 344 449 294 449 q 239 449 200 408 q 160 366 160 323 l 160 0 l 70 0 l 70 500 l 160 500 l 160 431 q 220 513 309 513 q 378 513 414 492 q 450 472 479 424 q 542 513 641 513 q 826 513 826 323 z"},"#":{"x_min":0,"x_max":745,"ha":745,"o":"m 696 513 l 675 444 l 533 444 l 491 308 l 632 308 l 611 239 l 470 239 l 399 0 l 325 0 l 396 239 l 266 239 l 194 0 l 120 0 l 192 239 l 50 239 l 71 308 l 213 308 l 255 444 l 114 444 l 135 513 l 276 513 l 340 722 l 415 722 l 350 513 l 481 513 l 545 722 l 619 722 l 555 513 z m 460 444 l 329 444 l 286 308 l 418 308 z"},",":{"x_min":0,"x_max":275,"ha":275,"o":"m 228 123 l 118 -127 l 48 -127 l 108 123 z"},"n":{"x_min":0,"x_max":573,"ha":573,"o":"m 504 0 l 415 0 l 415 331 q 415 382 378 417 q 342 453 292 453 q 237 453 199 417 q 160 380 160 323 l 160 0 l 70 0 l 70 500 l 160 500 l 160 436 q 165 439 178 455 q 190 471 203 482 q 215 493 244 503 q 272 513 312 513 q 504 513 504 329 z"},"h":{"x_min":0,"x_max":572,"ha":572,"o":"m 503 0 l 413 0 l 413 315 q 413 381 381 415 q 350 448 308 448 q 241 448 201 414 q 160 379 160 341 l 160 0 l 70 0 l 70 722 l 160 722 l 160 437 q 162 441 168 449 q 175 457 192 474 q 210 490 243 501 q 276 513 317 513 q 416 513 459 464 q 503 416 503 311 z"},"z":{"x_min":0,"x_max":468,"ha":468,"o":"m 418 0 l 50 0 l 50 83 l 316 430 l 70 430 l 70 500 l 418 500 l 418 417 l 150 70 l 418 70 z"},"B":{"x_min":0,"x_max":673,"ha":673,"o":"m 613 201 q 613 116 549 58 q 484 0 396 0 l 80 0 l 80 722 l 370 722 q 464 722 525 676 q 587 631 587 544 q 587 510 574 480 q 562 451 543 435 q 525 418 507 406 q 489 394 477 389 l 464 385 q 470 383 480 380 q 490 377 516 362 q 542 348 562 329 q 581 311 597 276 q 613 242 613 201 z m 494 530 q 494 635 340 635 l 181 635 l 181 420 l 338 420 q 494 420 494 530 z m 516 212 q 516 272 469 305 q 423 337 333 337 l 181 337 l 181 87 l 338 87 q 417 87 466 122 q 516 157 516 212 z"},"K":{"x_min":0,"x_max":664,"ha":664,"o":"m 640 0 l 505 0 l 181 381 l 181 0 l 80 0 l 80 722 l 181 722 l 181 415 l 479 722 l 603 722 l 296 411 z"},"R":{"x_min":0,"x_max":629,"ha":629,"o":"m 587 0 l 485 0 q 473 57 465 104 q 457 151 452 174 q 443 214 437 237 q 431 261 419 280 q 408 299 399 307 q 391 315 369 321 q 347 326 327 327 q 308 328 269 328 l 181 328 l 181 0 l 80 0 l 80 722 l 309 722 q 440 722 505 677 q 569 632 569 525 q 569 434 434 369 q 441 368 453 365 q 464 362 489 343 q 515 323 527 292 q 536 271 549 169 q 562 68 587 0 z m 468 525 q 468 586 426 610 q 385 635 306 635 l 181 635 l 181 415 l 306 415 q 385 415 426 440 q 468 466 468 525 z"},"T":{"x_min":0,"x_max":612,"ha":612,"o":"m 593 635 l 357 635 l 357 0 l 256 0 l 256 635 l 20 635 l 20 722 l 593 722 z"},"P":{"x_min":0,"x_max":622,"ha":622,"o":"m 284 306 l 181 306 l 181 0 l 80 0 l 80 722 l 284 722 q 331 722 367 718 q 403 714 442 701 q 480 688 506 666 q 531 644 547 605 q 563 566 563 514 q 563 461 547 422 q 531 384 506 362 q 480 340 442 327 q 403 313 367 310 q 331 306 284 306 z m 287 635 l 181 635 l 181 394 l 287 394 q 381 394 423 421 q 466 448 466 514 q 466 579 423 607 q 380 635 287 635 z"},"|":{"x_min":0,"x_max":345,"ha":345,"o":"m 198 -258 l 147 -258 l 147 796 l 198 796 z"},"t":{"x_min":0,"x_max":350,"ha":350,"o":"m 320 0 q 288 -11 245 -13 q 180 -16 150 17 q 120 49 120 131 l 120 436 l 30 436 l 30 500 l 120 500 l 120 599 l 210 636 l 210 500 l 320 500 l 320 436 l 210 436 l 210 131 q 210 88 224 71 q 238 54 265 56 q 296 57 320 64 z"},"M":{"x_min":0,"x_max":897,"ha":897,"o":"m 818 0 l 717 0 l 717 627 l 488 0 l 408 0 l 181 622 l 181 0 l 80 0 l 80 722 l 239 722 l 448 140 l 659 722 l 818 722 z"},"g":{"x_min":0,"x_max":590,"ha":590,"o":"m 520 30 q 520 -70 456 -134 q 393 -198 276 -198 q 219 -198 176 -181 q 134 -163 113 -136 q 93 -109 84 -85 q 75 -62 75 -40 l 169 -40 q 169 -87 206 -111 q 243 -136 293 -136 q 365 -136 397 -85 q 430 -34 430 93 q 417 77 408 69 q 399 61 379 45 q 358 29 332 21 q 305 14 271 14 q 205 14 159 37 q 112 61 90 101 q 67 141 59 180 q 50 220 50 267 q 50 373 109 443 q 169 513 262 513 q 298 513 326 508 q 354 503 369 499 q 383 494 398 480 q 414 467 416 464 q 418 462 430 445 l 430 500 l 520 500 z m 428 265 q 428 350 391 399 q 354 449 278 449 q 143 449 143 267 q 143 180 179 129 q 215 78 283 78 q 357 78 393 131 q 428 185 428 265 z"},"j":{"x_min":0,"x_max":286,"ha":286,"o":"m 225 630 l 119 630 l 119 722 l 225 722 z m 217 -80 q 217 -119 204 -146 q 191 -173 172 -184 q 153 -195 130 -202 q 107 -208 86 -206 q 65 -204 50 -205 l 50 -141 q 78 -140 95 -140 q 112 -140 120 -121 q 127 -103 127 -50 l 127 500 l 217 500 z"},"i":{"x_min":0,"x_max":229,"ha":229,"o":"m 168 630 l 62 630 l 62 722 l 168 722 z m 160 0 l 70 0 l 70 500 l 160 500 z"},"y":{"x_min":0,"x_max":534,"ha":534,"o":"m 208 -56 l 229 0 l 15 500 l 120 500 l 277 123 l 423 500 l 520 500 l 281 -111 q 281 -111 248 -198 l 156 -198 q 156 -198 208 -56 z"},"@":{"x_min":0,"x_max":1000,"ha":1000,"o":"m 940 298 q 940 187 882 104 q 824 21 739 21 q 649 21 606 116 q 581 70 546 48 q 512 26 456 26 q 381 26 330 93 q 278 160 278 259 q 278 365 329 429 q 379 492 456 492 q 491 492 516 485 q 541 479 550 472 q 559 466 575 448 q 591 431 597 426 l 597 485 l 687 485 l 687 149 q 699 104 745 108 q 755 105 770 112 q 785 119 802 137 q 819 155 831 197 q 843 239 843 298 q 843 473 753 549 q 663 626 499 626 q 450 626 404 616 q 358 606 312 582 q 267 558 233 521 q 199 483 178 424 q 156 365 156 291 q 156 111 246 12 q 336 -88 510 -88 q 572 -88 603 -85 q 633 -82 681 -69 l 681 -152 q 630 -170 601 -174 q 571 -178 519 -178 q 447 -178 384 -165 q 321 -151 261 -118 q 200 -84 157 -33 q 113 19 86 102 q 60 185 60 290 q 60 389 96 471 q 133 553 194 605 q 255 658 332 687 q 408 716 491 716 q 699 716 820 608 q 940 500 940 298 z m 593 266 q 593 333 565 377 q 537 422 483 422 q 429 422 401 377 q 373 333 373 266 q 373 95 483 95 q 535 95 564 146 q 593 196 593 266 z"},".":{"x_min":0,"x_max":275,"ha":275,"o":"m 206 0 l 98 0 l 98 123 l 206 123 z"},"p":{"x_min":0,"x_max":599,"ha":599,"o":"m 549 250 q 549 131 494 59 q 438 -14 318 -14 q 243 -14 160 52 l 160 -198 l 70 -198 l 70 500 l 160 500 l 160 437 q 201 475 236 494 q 271 513 318 513 q 438 513 494 441 q 549 370 549 250 z m 306 449 q 232 449 196 392 q 159 335 159 250 q 159 165 196 108 q 232 51 306 51 q 380 51 417 108 q 453 165 453 250 q 453 335 417 392 q 380 449 306 449 z"},"X":{"x_min":0,"x_max":703,"ha":703,"o":"m 679 0 l 551 0 l 345 314 l 143 0 l 25 0 l 290 385 l 59 722 l 187 722 l 359 456 l 526 722 l 644 722 l 413 385 z"},"*":{"x_min":0,"x_max":656,"ha":656,"o":"m 529 488 l 364 509 l 465 375 l 393 335 l 329 482 l 265 335 l 192 375 l 293 509 l 128 488 l 128 570 l 293 549 l 192 683 l 265 722 l 329 576 l 393 722 l 465 683 l 364 549 l 529 570 z"},"Y":{"x_min":0,"x_max":665,"ha":665,"o":"m 651 722 l 383 287 l 383 0 l 282 0 l 282 287 l 15 722 l 138 722 l 339 375 l 537 722 z"},"c":{"x_min":0,"x_max":521,"ha":521,"o":"m 471 169 q 471 91 423 39 q 375 -13 271 -13 q 50 -13 50 250 q 50 383 101 448 q 151 513 262 513 q 371 513 423 466 q 475 420 466 343 l 377 343 q 384 380 366 404 q 348 428 319 437 q 291 445 255 445 q 202 445 171 398 q 140 352 140 250 q 140 146 173 101 q 206 55 272 55 q 330 55 356 90 q 382 126 382 169 z"},"!":{"x_min":0,"x_max":368,"ha":368,"o":"m 237 722 l 214 169 l 154 169 l 131 722 z m 231 0 l 131 0 l 131 95 l 231 95 z"},"/":{"x_min":0,"x_max":396,"ha":396,"o":"m 351 736 l 115 -52 l 46 -52 l 282 736 z"},"[":{"x_min":0,"x_max":396,"ha":396,"o":"m 292 -198 l 106 -198 l 106 722 l 292 722 l 292 671 l 192 671 l 192 -147 l 292 -147 z"},"6":{"x_min":0,"x_max":559,"ha":559,"o":"m 512 216 q 512 161 494 117 q 470 54 412 19 q 357 -15 288 -14 q 210 -13 148 30 q 86 74 61 147 q 46 189 44 244 q 42 299 47 343 q 56 481 63 528 q 72 574 87 608 q 105 648 136 676 q 166 704 208 720 q 247 734 291 736 q 354 739 398 716 q 438 694 462 652 q 490 606 492 550 l 396 550 q 398 586 379 615 q 364 638 342 649 q 318 662 289 659 q 255 656 225 633 q 198 612 180 580 q 151 528 146 433 q 145 396 145 354 q 161 379 180 399 q 202 422 227 434 q 256 447 299 446 q 336 445 371 437 q 410 426 438 405 q 479 373 498 312 q 512 268 512 216 z m 410 216 q 410 270 397 300 q 384 333 353 352 q 322 369 284 369 q 246 369 216 352 q 184 333 170 300 q 157 270 157 216 q 157 162 170 133 q 185 99 216 81 q 246 63 284 63 q 322 63 352 81 q 384 99 397 133 q 410 162 410 216 z"},"r":{"x_min":0,"x_max":362,"ha":362,"o":"m 343 420 q 160 420 160 280 l 160 0 l 70 0 l 70 500 l 160 500 l 160 432 q 181 468 217 484 q 254 500 343 500 z"},"2":{"x_min":0,"x_max":559,"ha":559,"o":"m 497 0 l 62 0 l 62 93 q 188 234 263 318 q 338 401 368 447 q 397 492 397 526 q 397 592 372 623 q 347 653 287 653 q 234 653 208 623 q 182 593 174 526 l 72 526 q 88 736 287 736 q 386 736 441 676 q 497 616 497 540 q 497 517 493 497 q 489 478 480 456 q 472 434 457 410 q 441 387 418 357 q 396 327 364 292 q 333 257 292 210 q 250 163 197 106 q 181 88 172 78 l 497 78 z"},"{":{"x_min":0,"x_max":487,"ha":487,"o":"m 408 -240 q 336 -240 292 -226 q 247 -211 224 -159 q 208 -123 204 -71 q 200 -19 201 25 q 201 68 195 110 q 189 152 162 182 q 134 212 80 223 l 80 296 q 135 309 163 339 q 190 369 196 411 q 201 453 200 497 q 199 540 203 591 q 206 643 224 679 q 249 730 293 745 q 338 760 408 760 l 408 686 q 362 686 335 670 q 309 654 300 629 q 292 604 290 572 q 287 540 291 507 q 294 475 290 444 q 283 371 265 336 q 247 301 205 259 q 247 218 265 183 q 283 147 290 75 q 294 45 291 12 q 287 -21 290 -53 q 292 -85 300 -110 q 309 -135 335 -150 q 362 -166 408 -166 z"},"9":{"x_min":0,"x_max":559,"ha":559,"o":"m 512 379 q 512 300 502 237 q 493 175 468 114 q 443 54 393 20 q 342 -14 268 -14 q 172 -14 125 31 q 79 76 67 172 l 163 172 q 167 112 194 88 q 221 63 270 63 q 325 63 359 111 q 394 158 403 216 q 412 273 413 320 l 414 368 q 405 356 396 345 q 388 333 378 323 q 369 312 357 304 q 346 296 333 290 q 319 283 301 280 q 282 276 260 276 q 206 276 166 292 q 126 309 104 333 q 82 356 68 390 q 55 423 51 450 q 47 477 47 506 q 47 544 57 580 q 66 616 89 653 q 112 690 159 713 q 206 736 271 736 q 318 736 354 728 q 390 720 415 707 q 440 693 458 668 q 476 644 486 618 q 497 592 502 551 q 508 511 510 473 q 512 435 512 379 z m 275 659 q 208 659 179 621 q 149 582 149 506 q 149 430 179 391 q 208 353 275 353 q 342 353 372 391 q 402 430 402 506 q 402 582 372 621 q 342 659 275 659 z"}," ":{"x_min":0,"x_max":300,"ha":300,"o":""},"I":{"x_min":0,"x_max":261,"ha":261,"o":"m 181 0 l 80 0 l 80 722 l 181 722 z"},"H":{"x_min":0,"x_max":709,"ha":709,"o":"m 629 0 l 528 0 l 528 326 l 181 326 l 181 0 l 80 0 l 80 722 l 181 722 l 181 413 l 528 413 l 528 722 l 629 722 z"},"4":{"x_min":0,"x_max":559,"ha":559,"o":"m 529 176 l 440 176 l 440 0 l 347 0 l 347 176 l 30 176 l 30 281 l 330 722 l 440 722 l 440 259 l 529 259 z m 347 259 l 347 612 l 110 259 z"},"~":{"x_min":0,"x_max":533,"ha":533,"o":"m 534 315 q 527 275 478 237 q 428 198 378 198 q 319 198 251 218 q 184 238 166 238 q 126 238 91 195 l 0 195 q 7 235 57 274 q 106 313 154 313 q 214 313 282 293 q 351 273 368 273 q 409 273 443 315 z"},"D":{"x_min":0,"x_max":720,"ha":720,"o":"m 660 362 q 660 308 650 258 q 640 208 614 160 q 588 112 548 78 q 509 43 446 21 q 384 0 305 0 l 80 0 l 80 722 l 305 722 q 384 722 446 702 q 509 682 548 648 q 588 614 614 567 q 640 521 650 470 q 660 420 660 362 z m 561 362 q 561 493 493 564 q 426 635 307 635 l 181 635 l 181 87 l 307 87 q 425 87 493 160 q 561 232 561 362 z"},"^":{"x_min":0,"x_max":1000,"ha":1000,"o":"m 761 10 l 699 10 l 500 546 l 301 10 l 239 10 l 469 610 l 531 610 z"},"0":{"x_min":0,"x_max":559,"ha":559,"o":"m 509 375 q 509 334 507 300 q 505 266 499 224 q 493 183 483 150 q 474 118 457 86 q 439 55 416 34 q 393 13 358 0 q 323 -14 280 -14 q 221 -14 177 11 q 134 36 110 73 q 86 110 72 166 q 58 221 54 269 q 50 316 50 375 q 50 434 54 479 q 58 524 72 575 q 86 626 110 659 q 134 692 177 714 q 221 736 280 736 q 340 736 383 714 q 426 692 450 659 q 474 626 487 575 q 501 524 505 479 q 509 435 509 375 z m 412 375 q 412 441 408 485 q 403 529 390 571 q 377 612 350 632 q 322 652 280 652 q 251 652 229 643 q 208 634 193 615 q 179 596 169 573 q 160 550 155 516 q 150 482 149 450 q 147 418 147 375 q 147 308 152 260 q 156 213 169 166 q 182 119 210 95 q 238 70 280 70 q 322 70 350 95 q 378 119 391 166 q 403 213 408 260 q 412 308 412 375 z"},"F":{"x_min":0,"x_max":569,"ha":569,"o":"m 500 635 l 181 635 l 181 413 l 480 413 l 480 326 l 181 326 l 181 0 l 80 0 l 80 722 l 500 722 z"},"`":{"x_min":0,"x_max":229,"ha":229,"o":"m 176 600 l 115 600 l -25 771 l 76 771 z"},"k":{"x_min":0,"x_max":498,"ha":498,"o":"m 479 0 l 360 0 l 160 267 l 160 0 l 70 0 l 70 722 l 160 722 l 160 292 l 350 500 l 463 500 l 263 282 z"},"u":{"x_min":0,"x_max":572,"ha":572,"o":"m 503 0 l 413 0 l 413 64 q 364 -13 261 -13 q 161 -13 116 34 q 70 81 70 171 l 70 500 l 160 500 l 160 169 q 160 118 196 83 q 232 48 281 48 q 336 48 375 84 q 413 121 413 178 l 413 500 l 503 500 z"},"]":{"x_min":0,"x_max":396,"ha":396,"o":"m 292 -198 l 106 -198 l 106 -147 l 205 -147 l 205 671 l 106 671 l 106 722 l 292 722 z"},"U":{"x_min":0,"x_max":736,"ha":736,"o":"m 657 322 q 657 143 589 64 q 521 -14 368 -14 q 216 -14 148 64 q 80 142 80 322 l 80 722 l 181 722 l 181 322 q 181 244 195 192 q 210 141 238 116 q 266 92 296 83 q 326 74 368 74 q 401 74 426 79 q 450 83 476 99 q 502 114 519 141 q 535 167 545 213 q 556 259 556 322 l 556 722 l 657 722 z"},"N":{"x_min":0,"x_max":723,"ha":723,"o":"m 643 0 l 499 0 l 181 592 l 181 0 l 80 0 l 80 722 l 223 722 l 542 130 l 542 722 l 643 722 z"},"+":{"x_min":0,"x_max":1000,"ha":1000,"o":"m 800 269 l 531 269 l 531 0 l 469 0 l 469 269 l 200 269 l 200 331 l 469 331 l 469 600 l 531 600 l 531 331 l 800 331 z"},"G":{"x_min":0,"x_max":761,"ha":761,"o":"m 685 542 l 584 542 q 584 577 536 613 q 488 649 418 649 q 289 649 226 578 q 163 506 163 388 q 163 323 176 270 q 188 216 215 170 q 242 125 291 100 q 340 74 406 74 q 469 74 524 86 l 580 98 l 580 298 l 416 298 l 416 385 l 681 385 l 681 36 q 618 13 543 0 q 468 -14 417 -14 q 60 -14 60 390 q 60 538 155 637 q 251 736 409 736 q 477 736 532 717 q 587 698 619 668 q 650 639 667 606 q 685 573 685 542 z"},"q":{"x_min":0,"x_max":599,"ha":599,"o":"m 529 -198 l 439 -198 l 439 52 q 356 -14 281 -14 q 161 -14 105 59 q 50 131 50 250 q 50 369 105 441 q 161 513 281 513 q 327 513 362 494 q 397 475 439 437 l 439 500 l 529 500 z m 293 449 q 220 449 183 392 q 146 335 146 250 q 146 165 183 108 q 220 51 293 51 q 367 51 404 108 q 440 165 440 250 q 440 335 404 392 q 367 449 293 449 z"},"d":{"x_min":0,"x_max":591,"ha":591,"o":"m 521 0 l 431 0 l 431 57 q 424 49 411 37 q 398 25 360 6 q 321 -13 282 -13 q 192 -13 121 61 q 50 135 50 240 q 50 289 61 335 q 72 381 95 422 q 118 463 160 488 q 202 513 257 513 q 303 513 340 500 q 377 488 395 474 q 412 459 422 447 l 431 435 l 431 722 l 521 722 z m 428 246 q 428 331 384 392 q 341 453 274 453 q 229 453 197 421 q 166 389 154 345 q 142 302 142 252 q 142 172 182 115 q 222 59 286 59 q 333 59 366 88 q 399 118 414 159 q 428 200 428 246 z"},"1":{"x_min":0,"x_max":559,"ha":559,"o":"m 379 0 l 286 0 l 286 602 q 230 562 130 519 l 130 602 q 173 628 210 659 q 248 690 264 707 q 279 723 279 722 l 379 722 z"},"5":{"x_min":0,"x_max":559,"ha":559,"o":"m 506 237 q 507 140 438 63 q 369 -13 290 -13 q 179 -13 116 37 q 53 87 53 176 l 158 176 q 158 122 191 95 q 225 67 279 67 q 329 67 367 112 q 405 156 405 235 q 405 406 287 406 q 200 406 154 302 l 64 302 l 77 722 l 460 722 l 460 639 l 175 639 l 163 412 q 169 417 186 434 q 202 451 212 458 q 223 466 248 473 q 273 480 309 480 q 400 480 453 410 q 505 339 506 237 z"}}}
